G04 EAGLE Gerber RS-274X export*
G75*
%MOMM*%
%FSLAX34Y34*%
%LPD*%
%INSolderpaste Top*%
%IPPOS*%
%AMOC8*
5,1,8,0,0,1.08239X$1,22.5*%
G01*
%ADD10R,2.400000X2.400000*%
%ADD11R,1.800000X1.600000*%
%ADD12R,1.800000X1.700000*%
%ADD13R,0.762000X1.270000*%
%ADD14R,2.000000X1.600000*%
%ADD15R,1.600000X2.000000*%


D10*
X1002900Y482600D03*
X952900Y482600D03*
D11*
X571500Y430500D03*
X571500Y458500D03*
X850900Y417800D03*
X850900Y445800D03*
X406400Y468600D03*
X406400Y496600D03*
X914400Y496600D03*
X914400Y468600D03*
X431800Y318800D03*
X431800Y290800D03*
D12*
X970100Y266700D03*
X1011100Y266700D03*
D13*
X190500Y472900D03*
X203200Y472900D03*
X215900Y472900D03*
X228600Y472900D03*
X241300Y472900D03*
X254000Y472900D03*
X266700Y472900D03*
X279400Y472900D03*
X292100Y472900D03*
X304800Y472900D03*
X292100Y568500D03*
X304800Y568500D03*
X317500Y568500D03*
X330200Y568500D03*
X342900Y568500D03*
X355600Y568500D03*
X355600Y472900D03*
X342900Y472900D03*
X330200Y472900D03*
X317500Y472900D03*
X279400Y568500D03*
X266700Y568500D03*
X254000Y568500D03*
X241300Y568500D03*
X228600Y568500D03*
X215900Y568500D03*
X203200Y568500D03*
X190500Y568500D03*
X698500Y472900D03*
X711200Y472900D03*
X723900Y472900D03*
X736600Y472900D03*
X749300Y472900D03*
X762000Y472900D03*
X774700Y472900D03*
X787400Y472900D03*
X800100Y472900D03*
X812800Y472900D03*
X800100Y568500D03*
X812800Y568500D03*
X825500Y568500D03*
X838200Y568500D03*
X850900Y568500D03*
X863600Y568500D03*
X863600Y472900D03*
X850900Y472900D03*
X838200Y472900D03*
X825500Y472900D03*
X787400Y568500D03*
X774700Y568500D03*
X762000Y568500D03*
X749300Y568500D03*
X736600Y568500D03*
X723900Y568500D03*
X711200Y568500D03*
X698500Y568500D03*
D14*
X927100Y608300D03*
X927100Y636300D03*
X622300Y608300D03*
X622300Y636300D03*
X546100Y608300D03*
X546100Y636300D03*
X508000Y608300D03*
X508000Y636300D03*
D15*
X1004600Y190500D03*
X976600Y190500D03*
X1004600Y228600D03*
X976600Y228600D03*
D14*
X469900Y608300D03*
X469900Y636300D03*
X431800Y608300D03*
X431800Y636300D03*
X393700Y608300D03*
X393700Y636300D03*
X355600Y608300D03*
X355600Y636300D03*
X317500Y608300D03*
X317500Y636300D03*
X889000Y608300D03*
X889000Y636300D03*
X279400Y608300D03*
X279400Y636300D03*
X241300Y608300D03*
X241300Y636300D03*
X203200Y608300D03*
X203200Y636300D03*
X165100Y608300D03*
X165100Y636300D03*
D15*
X1004600Y304800D03*
X976600Y304800D03*
X976600Y381000D03*
X1004600Y381000D03*
X976600Y596900D03*
X1004600Y596900D03*
X976600Y342900D03*
X1004600Y342900D03*
X976600Y558800D03*
X1004600Y558800D03*
X976600Y520700D03*
X1004600Y520700D03*
D14*
X850900Y608300D03*
X850900Y636300D03*
X774700Y191800D03*
X774700Y163800D03*
X812800Y191800D03*
X812800Y163800D03*
X647700Y191800D03*
X647700Y163800D03*
X685800Y191800D03*
X685800Y163800D03*
X812800Y608300D03*
X812800Y636300D03*
X774700Y608300D03*
X774700Y636300D03*
X736600Y608300D03*
X736600Y636300D03*
X698500Y608300D03*
X698500Y636300D03*
X660400Y608300D03*
X660400Y636300D03*
X584200Y608300D03*
X584200Y636300D03*
X914400Y532100D03*
X914400Y560100D03*
X406400Y532100D03*
X406400Y560100D03*
M02*
