G04 EAGLE Gerber RS-274X export*
G75*
%MOMM*%
%FSLAX34Y34*%
%LPD*%
%INSoldermask Bottom*%
%IPPOS*%
%AMOC8*
5,1,8,0,0,1.08239X$1,22.5*%
G01*
%ADD10C,3.403200*%
%ADD11C,2.003200*%
%ADD12C,1.625600*%
%ADD13P,1.759533X8X292.500000*%
%ADD14P,1.759533X8X22.500000*%
%ADD15R,1.879600X1.879600*%
%ADD16C,1.879600*%
%ADD17P,1.869504X8X112.500000*%
%ADD18R,1.611200X1.611200*%
%ADD19C,0.959600*%


D10*
X52550Y738650D03*
X1068550Y738650D03*
X1068550Y65550D03*
X52550Y65550D03*
D11*
X482600Y104900D02*
X482600Y122900D01*
X482600Y72900D02*
X482600Y54900D01*
X508000Y104900D02*
X508000Y122900D01*
X508000Y72900D02*
X508000Y54900D01*
X533400Y104900D02*
X533400Y122900D01*
X533400Y72900D02*
X533400Y54900D01*
X558800Y104900D02*
X558800Y122900D01*
X558800Y72900D02*
X558800Y54900D01*
D12*
X901700Y406400D03*
D13*
X927100Y406400D03*
X901700Y381000D03*
X927100Y381000D03*
X901700Y355600D03*
X927100Y355600D03*
X901700Y330200D03*
X927100Y330200D03*
X901700Y304800D03*
X927100Y304800D03*
X901700Y279400D03*
X927100Y279400D03*
X901700Y254000D03*
X927100Y254000D03*
X901700Y228600D03*
X927100Y228600D03*
D11*
X110200Y596900D02*
X92200Y596900D01*
X60200Y596900D02*
X42200Y596900D01*
X92200Y571500D02*
X110200Y571500D01*
X60200Y571500D02*
X42200Y571500D01*
X92200Y546100D02*
X110200Y546100D01*
X60200Y546100D02*
X42200Y546100D01*
X92200Y520700D02*
X110200Y520700D01*
X60200Y520700D02*
X42200Y520700D01*
X92200Y495300D02*
X110200Y495300D01*
X60200Y495300D02*
X42200Y495300D01*
X92200Y469900D02*
X110200Y469900D01*
X60200Y469900D02*
X42200Y469900D01*
X92200Y444500D02*
X110200Y444500D01*
X60200Y444500D02*
X42200Y444500D01*
X92200Y419100D02*
X110200Y419100D01*
X60200Y419100D02*
X42200Y419100D01*
X92200Y368300D02*
X110200Y368300D01*
X60200Y368300D02*
X42200Y368300D01*
X92200Y342900D02*
X110200Y342900D01*
X60200Y342900D02*
X42200Y342900D01*
X92200Y317500D02*
X110200Y317500D01*
X60200Y317500D02*
X42200Y317500D01*
X92200Y292100D02*
X110200Y292100D01*
X60200Y292100D02*
X42200Y292100D01*
X92200Y266700D02*
X110200Y266700D01*
X60200Y266700D02*
X42200Y266700D01*
X92200Y241300D02*
X110200Y241300D01*
X60200Y241300D02*
X42200Y241300D01*
X92200Y215900D02*
X110200Y215900D01*
X60200Y215900D02*
X42200Y215900D01*
X92200Y190500D02*
X110200Y190500D01*
X60200Y190500D02*
X42200Y190500D01*
X152400Y122900D02*
X152400Y104900D01*
X152400Y72900D02*
X152400Y54900D01*
X177800Y104900D02*
X177800Y122900D01*
X177800Y72900D02*
X177800Y54900D01*
X203200Y104900D02*
X203200Y122900D01*
X203200Y72900D02*
X203200Y54900D01*
X228600Y104900D02*
X228600Y122900D01*
X228600Y72900D02*
X228600Y54900D01*
X609600Y104900D02*
X609600Y122900D01*
X609600Y72900D02*
X609600Y54900D01*
X635000Y104900D02*
X635000Y122900D01*
X635000Y72900D02*
X635000Y54900D01*
X660400Y104900D02*
X660400Y122900D01*
X660400Y72900D02*
X660400Y54900D01*
X685800Y104900D02*
X685800Y122900D01*
X685800Y72900D02*
X685800Y54900D01*
X711200Y104900D02*
X711200Y122900D01*
X711200Y72900D02*
X711200Y54900D01*
X736600Y104900D02*
X736600Y122900D01*
X736600Y72900D02*
X736600Y54900D01*
X762000Y104900D02*
X762000Y122900D01*
X762000Y72900D02*
X762000Y54900D01*
X787400Y104900D02*
X787400Y122900D01*
X787400Y72900D02*
X787400Y54900D01*
X812800Y104900D02*
X812800Y122900D01*
X812800Y72900D02*
X812800Y54900D01*
X838200Y104900D02*
X838200Y122900D01*
X838200Y72900D02*
X838200Y54900D01*
X863600Y104900D02*
X863600Y122900D01*
X863600Y72900D02*
X863600Y54900D01*
X889000Y104900D02*
X889000Y122900D01*
X889000Y72900D02*
X889000Y54900D01*
X914400Y104900D02*
X914400Y122900D01*
X914400Y72900D02*
X914400Y54900D01*
X939800Y104900D02*
X939800Y122900D01*
X939800Y72900D02*
X939800Y54900D01*
X965200Y104900D02*
X965200Y122900D01*
X965200Y72900D02*
X965200Y54900D01*
X990600Y104900D02*
X990600Y122900D01*
X990600Y72900D02*
X990600Y54900D01*
D12*
X495300Y508000D03*
D14*
X495300Y533400D03*
X520700Y508000D03*
X520700Y533400D03*
X546100Y508000D03*
X546100Y533400D03*
X571500Y508000D03*
X571500Y533400D03*
X596900Y508000D03*
X596900Y533400D03*
D15*
X609600Y431800D03*
D16*
X609600Y406400D03*
X609600Y381000D03*
X609600Y355600D03*
X685800Y355600D03*
X685800Y381000D03*
X685800Y406400D03*
X685800Y431800D03*
D15*
X736600Y431800D03*
D16*
X736600Y406400D03*
X736600Y381000D03*
X736600Y355600D03*
X812800Y355600D03*
X812800Y381000D03*
X812800Y406400D03*
X812800Y431800D03*
D17*
X1079500Y165100D03*
X1054100Y165100D03*
X1079500Y190500D03*
X1054100Y190500D03*
X1079500Y215900D03*
X1054100Y215900D03*
X1079500Y241300D03*
X1054100Y241300D03*
X1079500Y266700D03*
X1054100Y266700D03*
X1079500Y292100D03*
X1054100Y292100D03*
X1079500Y317500D03*
X1054100Y317500D03*
X1079500Y342900D03*
X1054100Y342900D03*
X1079500Y368300D03*
X1054100Y368300D03*
X1079500Y393700D03*
X1054100Y393700D03*
X1079500Y419100D03*
X1054100Y419100D03*
X1079500Y444500D03*
X1054100Y444500D03*
X1079500Y469900D03*
X1054100Y469900D03*
X1079500Y495300D03*
X1054100Y495300D03*
X1079500Y520700D03*
X1054100Y520700D03*
X1079500Y546100D03*
X1054100Y546100D03*
X1079500Y571500D03*
X1054100Y571500D03*
X1079500Y596900D03*
X1054100Y596900D03*
X1079500Y622300D03*
X1054100Y622300D03*
X1079500Y647700D03*
X1054100Y647700D03*
D11*
X609600Y313400D02*
X609600Y295400D01*
X609600Y263400D02*
X609600Y245400D01*
X635000Y295400D02*
X635000Y313400D01*
X635000Y263400D02*
X635000Y245400D01*
X660400Y295400D02*
X660400Y313400D01*
X660400Y263400D02*
X660400Y245400D01*
X685800Y295400D02*
X685800Y313400D01*
X685800Y263400D02*
X685800Y245400D01*
X736600Y295400D02*
X736600Y313400D01*
X736600Y263400D02*
X736600Y245400D01*
X762000Y295400D02*
X762000Y313400D01*
X762000Y263400D02*
X762000Y245400D01*
X787400Y295400D02*
X787400Y313400D01*
X787400Y263400D02*
X787400Y245400D01*
X812800Y295400D02*
X812800Y313400D01*
X812800Y263400D02*
X812800Y245400D01*
X279400Y122900D02*
X279400Y104900D01*
X279400Y72900D02*
X279400Y54900D01*
X304800Y104900D02*
X304800Y122900D01*
X304800Y72900D02*
X304800Y54900D01*
X330200Y104900D02*
X330200Y122900D01*
X330200Y72900D02*
X330200Y54900D01*
X965200Y677200D02*
X965200Y695200D01*
X965200Y727200D02*
X965200Y745200D01*
X939800Y695200D02*
X939800Y677200D01*
X939800Y727200D02*
X939800Y745200D01*
X914400Y695200D02*
X914400Y677200D01*
X914400Y727200D02*
X914400Y745200D01*
X889000Y695200D02*
X889000Y677200D01*
X889000Y727200D02*
X889000Y745200D01*
X838200Y695200D02*
X838200Y677200D01*
X838200Y727200D02*
X838200Y745200D01*
X812800Y695200D02*
X812800Y677200D01*
X812800Y727200D02*
X812800Y745200D01*
X787400Y695200D02*
X787400Y677200D01*
X787400Y727200D02*
X787400Y745200D01*
X762000Y695200D02*
X762000Y677200D01*
X762000Y727200D02*
X762000Y745200D01*
X711200Y695200D02*
X711200Y677200D01*
X711200Y727200D02*
X711200Y745200D01*
X685800Y695200D02*
X685800Y677200D01*
X685800Y727200D02*
X685800Y745200D01*
X660400Y695200D02*
X660400Y677200D01*
X660400Y727200D02*
X660400Y745200D01*
X635000Y695200D02*
X635000Y677200D01*
X635000Y727200D02*
X635000Y745200D01*
X584200Y695200D02*
X584200Y677200D01*
X584200Y727200D02*
X584200Y745200D01*
X558800Y695200D02*
X558800Y677200D01*
X558800Y727200D02*
X558800Y745200D01*
X533400Y695200D02*
X533400Y677200D01*
X533400Y727200D02*
X533400Y745200D01*
X508000Y695200D02*
X508000Y677200D01*
X508000Y727200D02*
X508000Y745200D01*
X457200Y695200D02*
X457200Y677200D01*
X457200Y727200D02*
X457200Y745200D01*
X431800Y695200D02*
X431800Y677200D01*
X431800Y727200D02*
X431800Y745200D01*
X406400Y695200D02*
X406400Y677200D01*
X406400Y727200D02*
X406400Y745200D01*
X381000Y695200D02*
X381000Y677200D01*
X381000Y727200D02*
X381000Y745200D01*
X330200Y695200D02*
X330200Y677200D01*
X330200Y727200D02*
X330200Y745200D01*
X304800Y695200D02*
X304800Y677200D01*
X304800Y727200D02*
X304800Y745200D01*
X279400Y695200D02*
X279400Y677200D01*
X279400Y727200D02*
X279400Y745200D01*
X254000Y695200D02*
X254000Y677200D01*
X254000Y727200D02*
X254000Y745200D01*
X203200Y695200D02*
X203200Y677200D01*
X203200Y727200D02*
X203200Y745200D01*
X177800Y695200D02*
X177800Y677200D01*
X177800Y727200D02*
X177800Y745200D01*
X152400Y695200D02*
X152400Y677200D01*
X152400Y727200D02*
X152400Y745200D01*
X127000Y695200D02*
X127000Y677200D01*
X127000Y727200D02*
X127000Y745200D01*
X381000Y122900D02*
X381000Y104900D01*
X381000Y72900D02*
X381000Y54900D01*
X406400Y104900D02*
X406400Y122900D01*
X406400Y72900D02*
X406400Y54900D01*
X431800Y104900D02*
X431800Y122900D01*
X431800Y72900D02*
X431800Y54900D01*
X279400Y295400D02*
X279400Y313400D01*
X279400Y263400D02*
X279400Y245400D01*
X304800Y295400D02*
X304800Y313400D01*
X304800Y263400D02*
X304800Y245400D01*
X330200Y295400D02*
X330200Y313400D01*
X330200Y263400D02*
X330200Y245400D01*
X355600Y295400D02*
X355600Y313400D01*
X355600Y263400D02*
X355600Y245400D01*
D18*
X228600Y368300D03*
X228600Y342900D03*
X228600Y317500D03*
X228600Y292100D03*
X228600Y266700D03*
X228600Y241300D03*
X482600Y266700D03*
X482600Y292100D03*
X482600Y317500D03*
X482600Y342900D03*
D19*
X856869Y315341D03*
X533273Y394589D03*
X346710Y170053D03*
X346710Y214630D03*
X571246Y356616D03*
X808990Y340106D03*
X990600Y356616D03*
X1026922Y320294D03*
X972439Y478790D03*
X960882Y515112D03*
X364871Y579501D03*
X985647Y445770D03*
X335153Y511810D03*
X282321Y455676D03*
X95758Y624078D03*
X318643Y496951D03*
X800735Y488696D03*
X863473Y551434D03*
X445770Y151892D03*
X898144Y153543D03*
X870077Y336804D03*
X870077Y193167D03*
X926211Y183261D03*
X703326Y485394D03*
X911352Y592709D03*
X714883Y490347D03*
X873379Y607568D03*
X724789Y488696D03*
X904748Y607568D03*
X321945Y485394D03*
X577850Y561340D03*
X315341Y366522D03*
X594360Y553085D03*
X293878Y376428D03*
X34671Y381381D03*
X587756Y457327D03*
X567944Y409448D03*
X345059Y440817D03*
X285623Y381381D03*
X645541Y558038D03*
X609219Y558038D03*
X567944Y607568D03*
X605917Y607568D03*
X612521Y591058D03*
X562991Y591058D03*
X747903Y663702D03*
X609219Y662051D03*
X787527Y488696D03*
X837057Y624078D03*
X827151Y648843D03*
X523367Y599313D03*
X838708Y485394D03*
X624078Y421005D03*
X990600Y236093D03*
X858520Y379730D03*
X842010Y460629D03*
X757809Y404495D03*
X1033526Y206375D03*
X350012Y460629D03*
X368173Y432562D03*
X572897Y244348D03*
X878332Y28067D03*
X767715Y28067D03*
X313690Y581152D03*
X354965Y622427D03*
X232791Y556387D03*
X160147Y622427D03*
X186563Y633984D03*
X341757Y622427D03*
X140335Y406146D03*
X69342Y389636D03*
X46228Y396240D03*
X28067Y427609D03*
X227838Y490347D03*
X70993Y624078D03*
X936117Y457327D03*
X936117Y536575D03*
X483743Y539877D03*
X1028573Y333502D03*
X998855Y320294D03*
X944372Y265811D03*
X855218Y242697D03*
X690118Y178308D03*
X458978Y163449D03*
X893191Y163449D03*
X949325Y219583D03*
X954278Y259207D03*
X990600Y295529D03*
X1031875Y528320D03*
X1025271Y600964D03*
X47879Y625729D03*
X988949Y612521D03*
X1000506Y445770D03*
X950976Y283972D03*
X950976Y338455D03*
X950976Y384683D03*
X944372Y429260D03*
X954278Y463931D03*
X1005459Y463931D03*
X1021969Y505206D03*
X1066546Y326898D03*
X992251Y328549D03*
X1010412Y280670D03*
X1114425Y376428D03*
X1018667Y437515D03*
X950976Y551434D03*
X942721Y615823D03*
X754507Y544830D03*
X716534Y544830D03*
X366522Y171704D03*
X718185Y366522D03*
X718185Y325247D03*
X1091311Y374777D03*
X1012063Y64389D03*
X576199Y571246D03*
X559689Y523367D03*
X1033526Y589407D03*
X1007110Y663702D03*
X346710Y548132D03*
X320294Y529971D03*
X422656Y28067D03*
X675259Y34671D03*
X709930Y34671D03*
X1040130Y455676D03*
X1013714Y455676D03*
X959231Y455676D03*
X911352Y316992D03*
X881634Y217932D03*
X891540Y173355D03*
X640588Y387985D03*
X587756Y310388D03*
X759460Y33020D03*
X1030224Y624078D03*
X1099566Y138684D03*
X391287Y302133D03*
X391287Y279019D03*
X632333Y166751D03*
X454025Y302133D03*
X401193Y242697D03*
X627380Y158496D03*
X1036828Y150241D03*
X993902Y171704D03*
X531622Y265811D03*
X506857Y37973D03*
X914654Y429260D03*
X866775Y412750D03*
X696722Y229489D03*
M02*
